<svg width="664" height="108" viewBox="0 0 664 108" fill="none" xmlns="http://www.w3.org/2000/svg">
<path d="M643.103 70.3111C633.627 67.1111 623.178 68.7111 613.58 64.4445C605.44 60.8 593.534 64.6222 585.029 59.1111C588.674 59.2 592.197 59.2889 596.814 59.3778C594.87 58.4889 593.777 58.0445 591.225 56.9778C598.515 57.1556 603.618 57.2445 610.543 57.3334C607.87 56.0889 606.412 55.4667 603.132 53.9556C610.421 54.4 615.403 54.6667 620.505 55.0222C620.627 54.5778 620.748 54.0444 620.87 53.6C610.178 52.0889 599.487 50.4889 587.702 48.8C603.01 47.7333 617.225 46.6667 633.87 45.5111C628.281 44.1778 625.122 43.4667 621.963 42.7556C622.085 42.4 622.085 42.1334 622.206 41.7778C636.178 42.0445 650.15 42.3111 664 42.5778C664 42.4889 664 42.3111 664 42.2222C648.813 40.0889 633.627 38.0445 618.44 35.9111C618.561 35.4667 618.561 35.1111 618.683 34.6667C621.599 34.5778 624.393 34.4889 628.767 34.3111C625.851 33.6 624.515 33.2445 622.206 32.6222C626.702 32.3556 629.982 32.1778 632.533 32.0889C628.888 30.6667 624.879 29.0667 620.87 27.4667C620.991 27.0222 621.234 26.5778 621.356 26.1333C625.244 26.2222 629.01 26.3111 632.898 26.4C632.898 26.1334 632.898 25.9556 632.898 25.6889C624.879 24.9778 616.861 24.2667 608.842 23.5556C608.842 23.3778 608.842 23.2 608.842 23.0222C624.515 23.2889 640.187 23.6445 655.86 23.9111C655.86 23.8222 655.86 23.6445 655.86 23.5556C639.337 22.3111 622.814 21.1556 606.291 19.9111C606.291 19.6445 606.412 19.3778 606.412 19.2C621.477 19.4667 636.421 19.8222 651.486 20.0889C651.486 19.9111 651.486 19.7333 651.608 19.4667C647.598 19.2 643.589 18.8445 638.851 18.4889C641.038 18.2222 642.617 18.1334 644.075 17.9556C644.075 17.7778 643.954 17.5111 643.954 17.3333C631.683 17.0667 619.29 16.8889 610.786 16.7111C616.496 16.3556 625.851 15.7333 635.328 15.2C635.328 14.1333 635.449 13.0667 635.449 12.0889C484.554 3.91112 333.417 1.15557 182.036 11.2889C254.203 4.80002 326.613 2.75557 399.266 0.444458C357.958 0.888902 316.651 1.24446 275.221 1.6889C275.221 1.77779 275.221 1.86668 275.221 1.95557C278.988 2.22224 282.754 2.4889 286.399 2.75557C253.353 3.73335 220.306 4.71113 187.26 5.6889C187.26 6.31113 187.382 6.84446 187.382 7.46668C188.111 7.73335 188.961 8.00002 189.69 8.26668C178.391 8.00002 167.335 7.55557 156.765 5.42223C138.177 1.60001 120.803 7.11113 102.944 7.91113C97.2337 8.17779 91.2805 10.1333 86.2993 12.3556C72.3275 18.5778 58.4773 20.4445 43.6551 14.1333C42.8047 13.7778 41.3468 13.6889 40.4963 14.0445C33.2067 16.4445 26.0386 18.8445 18.992 21.4222C18.1415 21.7778 18.506 23.6445 18.3845 23.9111C22.3938 23.3778 25.9171 22.8445 29.4404 22.3111C29.5619 22.9333 29.8049 23.4667 29.9264 24.0889C22.5153 28.8 15.1042 33.5111 7.57162 38.0445C2.83338 40.9778 4.65578 47.2889 11.5809 49.6889C13.8893 43.3778 20.5714 44 27.132 44.2667C17.4126 47.1111 14.9827 52.7111 14.7397 59.4667C14.6182 62.9333 13.0388 66.4 11.5809 71.7333C7.69311 67.7333 5.38474 65.3333 1.98292 61.8667C1.01098 69.3333 -3.48428 75.5556 5.50623 80.6222C3.92682 82.0445 2.59039 83.2 1.37546 84.2667C1.86143 84.8 1.98292 85.0667 2.10442 85.1556C2.59039 85.3333 3.19786 85.4222 3.56234 85.6C7.8146 87.7333 20.8144 85.3333 12.1884 94.4C11.7024 94.9333 12.4313 96.4445 13.0388 97.2445C16.3191 101.067 19.7209 104.8 22.6368 108C30.2909 106.133 36.8515 103.822 43.7766 103.022C66.9818 100.178 90.1871 97.6 113.514 95.5556C146.681 92.7111 179.849 90.2222 213.138 87.9111C222.736 87.2 232.456 87.3778 242.054 87.2C242.054 87.8222 242.175 88.4445 242.175 88.9778C217.269 90.9333 192.363 92.8889 167.457 94.9333C290.408 92.2667 412.752 82.7556 535.946 83.2889C529.993 82.9333 524.161 82.4889 518.208 82.1333C518.937 80.8889 519.423 80.6222 519.909 80.6222C533.273 80.5333 546.637 83.5556 560.123 80.1778C565.347 78.8445 571.422 79.2889 577.132 79.3778C594.384 79.5556 611.515 80 628.767 80.3556C628.767 80 628.767 79.6445 628.888 79.2C617.833 79.0222 606.655 78.7556 595.599 78.5778C595.599 78.0445 595.599 77.5111 595.599 76.8889C602.403 77.0667 609.206 77.1556 616.132 77.3334C616.132 76.8889 616.132 76.4445 616.132 76.0889C606.655 75.9111 597.3 75.7334 587.824 75.5556C587.824 75.3778 587.945 75.1111 587.945 74.9333C594.749 74.6667 601.431 74.3111 608.235 74.0444C608.235 73.6889 608.235 73.3333 608.235 72.9778C606.048 72.3556 603.739 71.7334 601.552 71.1111C601.674 70.6667 601.795 70.3111 601.917 69.8667C615.524 69.7778 629.374 70.0444 643.103 70.3111ZM29.9264 19.2C38.7954 18.8445 46.085 18.5778 53.2531 18.2222C53.2531 18.8445 53.2531 19.3778 53.3746 20C46.085 18.5778 39.1599 26.2222 29.9264 19.2ZM260.642 86.1333C260.642 85.6 260.642 84.9778 260.642 84.4445C270.24 83.9111 279.838 83.2889 289.436 82.7556C289.436 83.2 289.558 83.5556 289.558 84C279.838 84.6222 270.24 85.4222 260.642 86.1333Z" fill="#D9CDB0"/>
</svg>
