<svg width="87" height="75" viewBox="0 0 87 75" fill="none" xmlns="http://www.w3.org/2000/svg">
<path d="M86.6099 67.6217C77.1599 67.6217 67.7317 67.6217 58.2818 67.6217C58.4552 67.5562 58.6286 67.447 58.7803 67.2942C61.4895 64.9148 63.7436 62.208 65.6076 59.2173C65.6293 59.2828 65.716 59.3483 65.8894 59.392C68.2735 60.2215 70.6794 60.3088 73.1286 59.6976C79.7608 58.0167 84.6375 51.5988 84.5942 44.6134C84.5942 42.8671 84.3341 41.2299 83.7055 39.6363C81.8416 34.9212 78.3954 32.2361 73.4103 31.6249C73.432 30.4025 73.4537 29.18 73.4103 27.9576C73.4103 27.5428 73.2586 27.4773 72.8901 27.4773C65.6726 27.4773 58.4768 27.4773 51.2593 27.4773C51.2377 27.4555 51.2377 27.4337 51.216 27.4118C49.0703 24.5303 48.7668 21.4524 50.2407 18.1998C50.8692 16.8027 51.8012 15.5803 52.6898 14.336C53.4268 13.31 54.1203 12.2404 54.5755 11.0616C55.941 7.37239 55.4858 3.7487 54.0336 0.190501C53.9903 0.103184 53.9903 -0.0496197 53.8169 0.0158686C54.9223 3.5959 54.6188 6.95763 52.2563 9.99192C51.3677 11.1489 50.414 12.2404 49.5688 13.4191C48.7235 14.5979 47.9865 15.8422 47.7048 17.283C47.0329 20.6884 47.9432 23.7226 50.0239 26.4295C50.3057 26.8006 50.6308 27.1717 51.0209 27.4991C48.5284 27.4991 46.0142 27.4991 43.5217 27.4991C43.4783 27.4991 43.4133 27.4991 43.37 27.4991C43.3483 27.4773 43.3266 27.4555 43.3049 27.4337C40.9858 24.312 40.8341 21.0376 42.633 17.6322C43.3483 16.2788 44.2803 15.0782 45.1689 13.8121C48.2466 9.3807 48.0082 4.75286 46.0359 0.0158686C46.0142 0.0595275 45.9925 0.0813569 45.9492 0.125016C45.9925 0.299651 46.0359 0.452455 46.0792 0.62709C46.9028 3.70504 46.6427 6.63019 44.8438 9.33704C44.1719 10.363 43.3266 11.258 42.5897 12.2185C41.5927 13.5283 40.574 14.8162 40.0538 16.4098C39.1435 19.1821 39.577 21.8235 40.8124 24.3775C41.4193 25.6436 42.3296 26.8443 43.1315 27.4991C40.574 27.4991 38.0164 27.4991 35.4589 27.4991C35.4372 27.4773 35.4155 27.4337 35.3939 27.4118C33.1398 24.3557 32.9447 21.1249 34.657 17.7632C35.3939 16.3225 36.4126 15.0564 37.3229 13.7248C38.2549 12.3495 38.9918 10.8869 39.2952 9.24972C39.9021 6.12811 39.4253 3.11565 38.2115 0.212332C38.1682 0.125014 38.1682 0.0158686 37.9948 0.0158686C39.0568 3.48675 38.8401 6.76117 36.6293 9.7518C35.6973 10.9961 34.7003 12.1967 33.7466 13.441C31.4925 16.3661 31.1024 19.575 32.2945 23.0241C32.8797 24.7268 34.0284 26.495 35.1988 27.521C28.1764 27.521 21.1323 27.521 14.1099 27.521C13.7631 27.521 13.6547 27.6083 13.633 27.9576C13.5247 31.6686 13.7197 35.3359 14.2616 39.0033C15.1286 44.9627 16.8191 50.6602 19.5934 56.0084C21.8475 60.3525 24.6868 64.2163 28.3931 67.4252C28.5015 67.5125 28.5882 67.578 28.6966 67.6217C19.29 67.6217 9.88341 67.6217 0.47683 67.6217C0.325111 67.6217 0.151719 67.6217 0 67.6435C0 67.7526 0 67.8836 0 67.9928C0.346786 68.9533 1.06203 69.6081 1.90732 70.1102C3.79297 71.289 5.89537 71.9657 8.01943 72.5333C11.639 73.5374 15.3019 74.1705 19.0082 74.6507C19.7018 74.7381 20.417 74.8254 21.1106 74.9127C21.4574 74.8254 21.7608 75 22.1076 75C36.4126 75 50.6958 75 65.0007 75C65.2608 75 65.5426 74.869 65.8027 75C66.5613 74.8035 67.3632 74.7599 68.1218 74.6507C72.7601 73.9958 77.3767 73.21 81.7982 71.6601C82.9686 71.2453 84.0957 70.7651 85.136 70.0884C85.9596 69.5645 86.6749 68.9314 87 67.9928C87 67.8836 87 67.7526 87 67.6435C86.9133 67.6435 86.7616 67.6217 86.6099 67.6217ZM68.5119 53.8036C71.0262 48.2589 72.4783 42.496 73.1069 36.5802C74.2556 36.6893 75.3176 37.0604 76.2713 37.7153C78.6121 39.3089 79.6308 41.6446 79.6958 44.3951C79.7608 47.5604 78.5687 50.2672 76.3146 52.4502C73.9955 54.6768 71.2862 55.6591 68.0785 54.9169C68.0568 54.9169 68.0351 54.9169 68.0135 54.8951C68.1868 54.5458 68.3602 54.1747 68.5119 53.8036Z" fill="black"/>
</svg>
