<svg width="87" height="48" viewBox="0 0 87 48" fill="none" xmlns="http://www.w3.org/2000/svg">
<g id="Group">
<g id="Group_2">
<path id="Vector" d="M86.0467 39.0277C85.9125 39.3686 85.8231 39.7522 85.6442 40.0931C84.9286 41.4141 84.0342 41.8828 82.3347 41.6698C80.188 41.4141 78.3544 40.4766 76.6996 39.1556C76.6996 39.1556 76.6549 39.113 76.6102 38.9851C76.8338 39.113 77.0127 39.1982 77.1469 39.2834C78.3991 40.0078 79.6066 40.8601 81.0378 41.2862C82.1111 41.6271 83.095 41.6271 83.8553 41.3288C80.4563 41.5845 78.086 39.6243 75.5368 38.005C75.5816 38.0903 75.671 38.1329 75.7157 38.2181C75.8052 38.3033 75.8499 38.3885 75.8946 38.4738C75.2685 37.9624 74.5977 37.4937 73.9715 36.9823C73.5243 36.5988 72.9876 36.4283 72.3615 36.4283C66.2792 36.4283 60.197 36.684 54.1147 37.238C46.2882 37.9624 38.5064 39.0704 30.9036 41.0306C27.773 41.8402 24.6871 42.6925 21.8249 44.0987C20.0359 44.951 18.4259 46.0163 17.1737 47.5077C17.0395 47.6782 16.8159 47.806 16.637 47.9339C16.5476 47.9339 16.4581 47.9339 16.3687 47.9339C14.8928 46.6981 14.3562 45.164 14.8034 43.3743C14.8928 42.9481 15.3848 42.522 15.7873 42.2663C16.9501 41.5845 18.1576 40.8601 19.4098 40.3487C21.154 39.6243 22.9876 39.0704 24.7765 38.4738C25.3132 38.3033 25.8499 38.3033 26.4313 38.6442C26.6996 38.8147 27.1916 38.8147 27.5494 38.7295C30.6352 38.2181 33.6764 37.6641 36.7175 37.1101C37.7461 36.9397 38.73 36.7693 39.7587 36.5988C39.8481 36.5988 39.9823 36.5988 40.0717 36.6414C38.6406 36.8971 37.2095 37.1102 35.7783 37.3658C31.1272 38.1755 26.5207 39.0704 22.0932 40.647C20.2148 41.3289 18.4259 42.2663 16.5923 43.1612C16.2345 43.3317 16.0109 43.63 15.7426 43.9709C15.7873 43.9709 15.8767 43.9709 15.9215 43.9282C19.544 41.5845 23.6585 40.3914 27.8624 39.4113C31.9769 38.4312 36.1809 37.7067 40.3401 36.8545C40.4742 36.8119 40.6084 36.8119 40.6978 36.7693C41.6817 36.1301 42.7998 36.1727 43.9179 36.0448C47.5404 35.6187 51.2077 35.1926 54.875 34.8943C58.1397 34.6386 61.4045 34.5108 64.6692 34.3829C67.1737 34.2977 69.6782 34.2551 72.1379 34.2125C72.2274 34.2125 72.2721 34.2125 72.4062 34.1698C71.4671 32.2949 70.8857 30.3773 70.7962 28.1614C70.3043 28.8432 69.8571 29.4398 69.4098 29.9938C68.7837 30.8034 68.247 31.6131 67.5762 32.3801C66.9054 33.1471 66.324 33.275 65.3401 32.9341C65.1165 32.8488 64.9376 32.7636 64.7587 32.6784C64.2667 32.3801 63.9537 32.0392 63.9089 31.4426C63.8195 29.5676 63.8195 27.7353 64.7587 26.0307C64.9376 25.6898 65.1612 25.3916 65.3848 25.008C64.3562 25.7325 63.9537 26.7126 63.7748 27.7779C63.6406 28.758 63.6406 29.7381 63.5959 30.7182C63.5959 30.8886 63.5959 31.0591 63.5959 31.2295C63.5512 31.2295 63.5064 31.2296 63.417 31.2722C63.3275 30.6756 63.1487 30.079 63.1039 29.4398C63.0145 27.3091 63.5064 25.3063 64.3562 23.3461C65.2506 21.3433 66.324 19.4683 67.8893 17.8916C68.9179 16.8263 70.1254 16.0167 71.6907 15.761C73.5243 15.4201 75.8946 16.6559 76.6102 18.2752C76.6996 18.4456 76.7444 18.7013 76.7444 18.8718C76.7444 19.2553 76.6549 19.6814 76.163 19.8092C75.8499 19.8945 75.3132 19.6388 75.1343 19.2553C75.0002 18.9996 74.9107 18.7013 74.866 18.403C74.7766 18.0195 74.5529 17.8916 74.1504 17.8916C73.3007 17.9343 72.5404 18.2326 71.8696 18.7013C69.6335 20.3206 68.1576 22.4513 67.0843 24.8802C66.324 26.5421 65.8767 28.3319 65.832 30.1642C65.832 30.3347 65.8767 30.5051 65.9215 30.8034C66.2792 30.3773 66.5923 30.079 66.8159 29.7807C68.0681 27.9483 69.3204 26.0734 70.5279 24.241C71.0646 23.4314 71.646 22.5791 72.1826 21.7694C72.3615 21.5138 72.4957 21.2155 72.6299 20.9172C72.8088 20.5337 73.0771 20.278 73.5243 20.3632C74.0163 20.4484 74.5082 20.5763 74.9555 20.7893C75.6263 21.1302 75.671 21.4285 75.5368 22.1104C75.0449 24.1132 74.5082 26.1586 74.1952 28.204C74.061 29.0989 74.1952 30.0364 74.3741 30.9313C74.5977 31.9966 75.0002 32.9767 75.3132 33.9994C75.4474 34.3829 75.7157 34.4681 76.0735 34.5107C78.7122 34.7664 81.3061 35.2352 83.7658 36.1727C84.705 36.5136 85.5995 36.9397 85.9572 37.9624C86.0467 38.2181 86.1361 38.5164 86.1809 38.7721C86.0467 38.8573 86.0467 38.9425 86.0467 39.0277ZM77.0127 36.8119C78.5333 37.9198 80.188 38.8147 82.0216 39.2834C82.7372 39.4539 83.4528 39.4965 84.1683 39.5817C84.3472 39.5817 84.6156 39.4113 84.705 39.2834C84.7497 39.1982 84.5708 38.8573 84.4367 38.7721C83.8553 38.4312 83.2739 38.005 82.6478 37.792C80.8588 37.1102 78.9805 36.8971 77.0127 36.8119ZM83.5869 37.7493C81.798 36.684 79.8302 36.3857 77.773 36.3431C79.7855 36.5988 81.7533 36.8971 83.5869 37.7493ZM61.6728 35.6187V35.6613C63.4617 35.6613 65.2953 35.6613 67.0843 35.6613V35.6187C65.2953 35.6187 63.5064 35.6187 61.6728 35.6187Z" fill="white"/>
<path id="Vector_2" d="M15.7871 0.29248C16.458 0.633385 17.1735 0.889059 17.8444 1.27258C18.1574 1.48564 18.381 1.82655 18.7388 2.25269C18.3363 2.33791 18.068 2.46575 17.8444 2.42313C16.2343 2.08223 14.669 2.38052 13.1485 2.84927C12.2987 3.10494 11.4043 3.31802 10.5546 3.57369C10.3757 3.61631 10.1521 3.82937 10.1073 3.99982C9.70483 6.17309 9.30232 8.38897 8.89982 10.5622C8.13953 14.994 7.2898 19.4684 6.66368 23.9001C6.17173 27.1813 5.9034 30.5052 5.63506 33.7864C5.45617 35.8744 5.54562 38.0051 5.9034 40.0931C5.94812 40.2636 5.99284 40.4766 6.03757 40.6471C7.11091 40.3914 8.18426 40.1357 9.2576 39.9227C11.0912 39.5817 12.2987 40.5618 12.9696 41.7976C13.059 41.9681 12.9696 42.2664 12.9696 42.5221C12.746 42.4368 12.4776 42.4368 12.2987 42.309C11.8068 41.9255 11.2701 41.8402 10.6887 41.9681C9.16815 42.309 7.73703 42.7777 6.35062 43.4169C5.18783 43.9709 3.9356 44.4396 2.77281 45.0362C1.74418 45.5902 0.983898 45.2067 0.313058 44.3544C0.178889 44.184 0.0894454 43.9709 0 43.8004C0 43.63 0 43.5022 0 43.3317C0.805009 42.6925 1.65474 42.0533 2.81753 42.0107C2.63864 41.5846 2.41503 41.2863 2.32558 40.9454C2.05724 40.0505 1.65474 39.113 1.52057 38.2181C1.20751 35.6613 1.3864 33.0619 1.65474 30.5052C2.01252 27.2239 2.41503 23.9001 2.9517 20.6615C3.57782 16.5707 4.29338 12.5224 5.00894 8.4742C5.18783 7.4941 5.41145 6.51399 5.59034 5.53389C5.50089 5.53389 5.45617 5.53389 5.41145 5.53389C4.9195 5.74695 4.42755 5.8748 3.98032 6.13048C3.08586 6.59922 2.59392 6.51399 1.92308 5.53389C1.43113 4.80946 1.52057 4.46856 2.37031 4.12766C4.69589 3.23278 6.97675 2.33791 9.30233 1.52826C10.8229 1.0169 12.3882 0.718614 13.9088 0.335096C14.5349 0.292483 15.161 0.29248 15.7871 0.29248ZM3.66726 26.7126C3.66726 27.5222 3.66726 28.2893 3.66726 29.0989C3.66726 28.6728 3.71198 28.2041 3.75671 27.7779C3.80143 27.3518 3.84616 26.9257 3.84616 26.4995C3.80143 26.4995 3.75671 26.4995 3.75671 26.4995C3.71198 26.5421 3.71198 26.6274 3.66726 26.7126C3.80143 26.116 4.02505 25.5194 4.15921 24.8802C5.09839 20.5763 5.99284 16.2724 6.8873 11.9685C6.97674 11.5849 7.06619 11.1588 7.15563 10.7753C7.24508 10.3918 7.33453 9.96565 7.42397 9.58213C4.11449 17.1673 2.99642 25.1359 2.81753 33.275C2.90698 33.1472 2.9517 33.0193 2.9517 32.8915C3.08587 31.7836 3.22004 30.633 3.3542 29.5251C3.39893 28.5876 3.53309 27.6501 3.66726 26.7126ZM3.48837 31.1017C3.13059 33.6585 3.08587 36.6841 3.48837 37.4085C3.48837 35.2778 3.48837 33.1898 3.48837 31.1017ZM2.90698 36.6414C2.9517 37.7494 2.9517 38.8999 3.66726 39.9227C3.39893 38.8147 3.13059 37.7068 2.90698 36.6414Z" fill="white"/>
<path id="Vector_3" d="M37.2092 30.6329C37.7906 30.0364 38.3273 29.4824 38.9087 28.8858C40.3845 27.3517 41.8603 25.8176 43.2915 24.2836C43.4704 24.0705 43.6045 23.8148 43.694 23.5592C44.2307 21.4285 44.7673 19.2979 45.304 17.1672C45.5276 16.4002 45.8854 16.1445 46.7351 16.2723C46.914 16.3149 47.0929 16.3149 47.2271 16.3576C48.4793 16.6985 48.7477 17.1246 48.4793 18.3604C47.8979 21.1728 47.2718 23.9853 46.7351 26.7978C46.4221 28.4171 46.2879 30.079 46.4221 31.7409C46.4221 31.9113 46.4668 32.0818 46.4668 32.2522C46.4668 32.2948 46.5115 32.3801 46.5562 32.5079C46.8693 32.167 47.1824 31.9113 47.3612 31.613C48.524 29.6528 49.6868 27.65 50.8049 25.6472C51.431 24.5393 52.1019 23.4313 52.5938 22.2808C53.0858 21.1302 53.3988 19.937 53.7566 18.7439C53.8908 18.3604 54.0249 17.9342 54.1591 17.5507C54.2933 17.1672 54.6063 16.8689 55.0536 16.9115C55.5455 16.9541 56.0822 17.0394 56.5294 17.2524C57.0661 17.4655 57.0661 17.9769 56.9766 18.4882C56.7977 19.5535 56.5741 20.6189 56.3952 21.6416C55.9033 24.1131 55.5455 26.5847 55.6797 29.1415C55.7244 30.0364 55.9033 30.9312 56.5294 31.7409C57.4239 30.9738 58.05 30.0364 58.5867 29.0562C59.6153 27.1387 60.152 25.0506 60.5992 22.9626C61.1358 20.4058 61.4489 17.8064 61.2253 15.207C61.0911 13.6729 60.7333 12.2241 60.152 10.8179C59.8836 10.1787 59.5706 9.49684 59.7047 8.7298C60.2861 8.90025 60.7334 9.24116 61.1359 9.66729C62.1198 10.7326 62.6117 12.011 62.9248 13.332C63.5509 15.6757 63.5509 18.0621 63.372 20.4058C63.1484 23.0478 62.5223 25.6046 61.6725 28.1188C61.1358 29.6528 60.2861 31.0591 59.1233 32.2522C57.558 33.8289 54.9194 33.6158 53.6224 31.7835C52.8621 30.6755 52.5938 29.4398 52.5044 28.1614C52.4596 27.7352 52.4149 27.3091 52.2807 26.883C52.236 26.9682 52.1466 27.0534 52.1019 27.1387C51.3863 28.4171 50.7602 29.6954 49.9999 30.9738C49.5974 31.6983 49.1054 32.3801 48.524 32.9767C48.1663 33.3602 47.6743 33.6159 47.1824 33.7863C45.8854 34.2124 44.5884 33.5732 44.0518 32.3801C43.4704 31.1443 43.2915 29.8233 43.2468 28.5023C43.2468 27.7779 43.2468 27.0534 43.2468 26.2438C42.7548 26.7978 42.3523 27.3091 41.9051 27.8205C40.1162 29.9511 38.372 32.0818 36.5831 34.2124C35.8228 35.1499 34.9731 35.363 33.9444 34.8942C33.2736 34.596 32.9605 34.0846 33.0052 33.4028C33.05 32.5505 33.1841 31.6983 33.2736 30.7182C33.05 30.9738 32.8711 31.1443 32.6922 31.3574C31.5741 32.6784 30.4561 33.9994 29.2933 35.2778C28.6224 36.0022 27.8174 36.0874 26.923 35.7465C25.6707 35.2778 24.9999 34.3829 24.6868 33.1471C24.6421 32.9767 24.5974 32.7636 24.5527 32.4653C24.4632 32.6784 24.3738 32.8062 24.329 32.934C23.524 34.6812 22.719 36.5135 21.5562 38.0902C20.5723 39.4538 19.2307 39.9226 17.5759 39.4965C16.7262 39.2834 16.1895 38.772 15.7423 38.0902C14.3559 35.8744 13.4167 33.4454 12.88 30.9312C12.8353 30.8034 12.7906 30.6329 12.7459 30.3773C12.6564 30.5477 12.6117 30.6329 12.6117 30.7182C12.1197 32.5079 11.6278 34.2977 11.762 36.1726C11.8067 36.8545 11.1806 37.238 10.5097 37.0675C9.4811 36.8118 8.85498 36.0448 8.85498 34.8942C8.85498 33.7863 8.94442 32.6357 9.16804 31.5704C10.4203 25.8177 12.2539 20.1927 14.3112 14.653C15.0714 12.6928 15.8764 10.7326 16.8603 8.81503C17.8442 6.85483 19.1859 5.10769 20.9301 3.70146C21.3326 3.36056 21.7351 3.06226 22.1824 2.80658C22.4954 2.63613 22.8979 2.55091 23.3004 2.5083C22.719 3.01966 22.1376 3.53101 21.5562 4.08498C19.5437 6.08779 18.202 8.47413 17.1287 10.9883C16.4131 12.6502 15.787 14.3974 15.1162 16.1019C15.1162 16.1445 15.0714 16.2297 15.1609 16.3149C15.3398 15.8888 15.5634 15.4201 15.7423 14.9939C17.0392 12.0962 18.2915 9.19856 20.0804 6.55654C21.0196 5.15031 22.1376 3.91452 23.3899 2.76397C23.6582 2.50829 23.9265 2.46568 24.2843 2.5509C25.7155 2.89181 26.6099 4.04237 26.6099 5.40599C26.6099 7.32357 25.9391 9.15594 25.0893 10.8179C23.3004 14.2695 20.8407 17.295 18.1573 20.1501C17.2181 21.1302 16.1895 22.0677 15.1609 23.0052C14.8925 23.2609 14.6689 23.5592 14.6689 24.0279C15.1162 23.6018 15.5634 23.2609 15.9659 22.8347C17.3523 21.4711 18.9176 20.4058 20.7512 19.6388C21.7351 19.2126 22.8532 19.4257 23.6135 20.1927C24.016 20.6189 24.0607 21.0876 23.9265 21.599C23.6582 22.4086 23.1663 23.0478 22.4954 23.6018C20.6618 25.1359 18.694 26.4569 16.592 27.65C15.7423 28.1614 15.6976 28.1614 15.9659 29.0562C16.8156 31.9539 17.6206 34.8516 18.7834 37.6641C18.8281 37.7919 18.9176 37.9198 19.007 38.1754C19.499 37.6641 19.9909 37.2806 20.3487 36.7692C20.8854 36.0448 21.3326 35.2778 21.7351 34.5107C22.5401 33.0193 23.3004 31.5278 24.016 30.0363C24.821 28.2892 25.5366 26.4995 26.3863 24.7949C27.6385 22.2382 29.2933 19.937 31.6189 18.1899C32.1108 17.8064 32.6922 17.5081 33.2736 17.2098C31.2611 19.0422 29.4274 20.9598 28.2646 23.3887C28.3094 23.4313 28.3541 23.4313 28.3541 23.4739C28.7119 22.9626 29.0696 22.4512 29.4274 21.9825C30.4113 20.6189 31.3505 19.2552 32.6922 18.2325C33.2289 17.8064 33.855 17.4655 34.4364 17.082C35.2414 16.5706 36.0911 16.5706 36.9409 16.8689C38.5062 17.3803 39.7584 18.2751 40.4292 19.7666C40.6528 20.278 40.6528 20.7467 40.3845 21.2581C40.1609 21.6842 39.7584 21.7694 39.3112 21.5563C38.8639 21.3007 38.5956 20.9171 38.5062 20.4484C38.4614 20.2353 38.4167 20.0649 38.4167 19.8518C38.372 19.5109 38.1484 19.3831 37.8353 19.3831C36.8961 19.2978 36.0464 19.5535 35.2414 20.0223C33.7655 20.8745 32.558 22.0251 31.4847 23.2609C29.2933 25.8603 27.9069 28.8006 27.3702 32.1244C27.3255 32.4653 27.3702 32.8488 27.3702 33.3176C27.728 32.934 28.041 32.6357 28.3094 32.3801C30.1877 30.3346 31.7977 28.1188 33.363 25.8603C33.8997 25.0932 34.5258 24.3688 35.1072 23.6444C35.3756 23.3035 35.5992 22.9626 35.7781 22.6217C35.957 22.2382 36.27 22.0677 36.6725 22.1103C37.3881 22.1529 38.0142 22.366 38.5509 22.7921C38.9981 23.133 39.0875 23.5592 38.9087 24.0705C38.2378 26.1586 37.6117 28.2892 36.9409 30.3773C36.8961 30.5051 36.8961 30.6756 36.8514 30.8034C37.075 30.5903 37.1645 30.5903 37.2092 30.6329ZM24.5527 4.29804C24.329 4.4685 24.1502 4.59633 24.016 4.72417C22.8979 5.7895 21.9587 7.02528 21.1537 8.34629C19.0965 11.7553 17.6654 15.4627 16.2789 19.17C16.2342 19.2552 16.279 19.3405 16.2342 19.5535C16.4131 19.4257 16.5026 19.3405 16.592 19.2552C18.0679 17.5081 19.5884 15.8462 20.9748 14.0564C22.406 12.1815 23.5688 10.1786 24.2396 7.92016C24.5527 6.7696 24.821 5.61905 24.5527 4.29804ZM21.8246 20.7041C21.7798 20.6615 21.7351 20.6189 21.6904 20.6189C20.1251 20.7893 15.6528 24.454 15.1609 25.6898C15.2503 25.6472 15.2951 25.6472 15.3398 25.6046C17.1287 24.3688 18.8729 23.1756 20.6171 21.8973C21.109 21.5564 21.4668 21.1302 21.8246 20.7041ZM46.5115 24.4114C45.7512 27.0534 45.1251 29.6528 46.2432 32.3375C45.4829 29.6528 46.0643 27.0108 46.5115 24.4114Z" fill="white"/>
<path id="Vector_4" d="M3.84619 24.8376C3.98036 23.7297 4.15925 22.5791 4.29342 21.4712C4.33814 21.4712 4.42758 21.4712 4.47231 21.5138C4.29341 22.6217 4.11453 23.7723 3.93564 24.8802C3.89091 24.8802 3.84619 24.8376 3.84619 24.8376Z" fill="white"/>
</g>
<path id="Vector_5" d="M56.9322 4.63887C56.7086 3.82922 56.2166 3.19002 55.3669 2.8065C54.8749 2.59344 54.4724 2.63606 54.1594 2.93435C53.4438 3.61616 52.8177 4.34058 52.5046 5.27807C51.9232 6.98259 51.2971 8.6445 50.7605 10.349C50.2238 11.9257 49.3293 13.2467 47.8535 14.1842C47.7193 14.2694 47.5851 14.3973 47.4062 14.5251C47.5404 14.5677 47.5851 14.5677 47.6746 14.6103C49.2399 14.9939 50.671 14.7382 52.0574 14.0138C54.1147 12.9484 55.5905 11.3291 56.485 9.2837C57.1111 7.79224 57.3347 6.21556 56.9322 4.63887Z" fill="#683D17"/>
<path id="Vector_6" d="M44.9016 7.06785C44.3649 6.59911 43.7835 6.13036 43.2468 5.61901C42.2629 4.72413 41.5026 3.70141 41.4579 2.33779C41.4579 2.29518 41.4132 2.20996 41.3685 2.20996C41.3237 2.20996 41.2343 2.25258 41.1896 2.29519C41.0554 2.46564 40.8765 2.63609 40.7871 2.80654C40.2057 3.78664 40.0268 4.85197 40.2504 6.00252C40.5635 7.66443 41.4579 8.98544 42.7549 10.0934C43.2021 10.4343 43.6493 10.7752 44.1413 11.1161C44.186 11.0309 44.186 10.9883 44.186 10.9456C44.2754 9.70986 44.5438 8.5167 44.991 7.32353C44.991 7.28092 44.9463 7.11046 44.9016 7.06785Z" fill="#CB8B3C"/>
<path id="Vector_7" d="M42.7996 4.25538C43.4257 4.85196 44.0518 5.44855 44.6779 6.04513C44.8568 6.21559 45.0804 6.38603 45.3041 6.5991C45.8407 5.49116 46.601 4.51106 47.4955 3.6588C46.601 2.50825 45.4829 1.65599 43.9624 1.3577C43.2915 1.22986 42.6654 1.31508 42.1287 1.74121C41.8604 1.95428 41.7262 2.20996 41.8157 2.50825C42.084 3.14745 42.3076 3.74402 42.7996 4.25538Z" fill="#CB8B3C"/>
<path id="Vector_8" d="M49.4634 11.1587C50.0001 9.66722 50.4473 8.17576 50.8946 6.6843C51.4759 4.93717 52.281 3.4031 54.0699 2.46561L54.1146 2.42299C54.4724 2.1247 54.1593 1.99686 54.1593 1.99686C52.9965 1.91164 52.4598 1.99686 52.4598 1.99686C51.5654 2.08209 50.6709 2.29516 49.8659 2.67867C48.1217 3.48832 46.9142 4.80932 46.0198 6.42862C45.2595 7.83485 44.9017 9.36893 44.7228 10.9882C44.6334 11.7126 44.7228 12.3945 45.0359 13.0336C45.3489 13.8007 46.0198 14.0564 46.8248 13.8433C47.0037 13.8007 47.2273 13.7155 47.4062 13.6302C48.4348 13.0763 49.0609 12.224 49.4634 11.1587Z" fill="#683D17"/>
</g>
</svg>
