<svg width="128" height="71" viewBox="0 0 128 71" fill="none" xmlns="http://www.w3.org/2000/svg">
<g id="Group">
<g id="Group_2">
<path id="Vector" d="M127.801 57.5311C127.601 58.0374 127.469 58.6071 127.203 59.1134C126.14 61.0754 124.812 61.7716 122.287 61.4552C119.099 61.0754 116.376 59.683 113.918 57.721C113.918 57.721 113.852 57.6577 113.785 57.4678C114.117 57.6577 114.383 57.7843 114.582 57.9109C116.442 58.9868 118.236 60.2526 120.361 60.8856C121.955 61.3919 123.417 61.3919 124.546 60.9488C119.498 61.3286 115.977 58.4172 112.191 56.0121C112.257 56.1387 112.39 56.202 112.457 56.3286C112.59 56.4552 112.656 56.5818 112.722 56.7083C111.792 55.9488 110.796 55.2526 109.866 54.4931C109.202 53.9235 108.405 53.6703 107.475 53.6703C98.4411 53.6703 89.4074 54.0501 80.3736 54.8729C68.7494 55.9488 57.1915 57.5944 45.8993 60.5058C41.2496 61.7083 36.6663 62.9741 32.4152 65.0628C29.7582 66.3286 27.3669 67.9109 25.507 70.126C25.3077 70.3792 24.9756 70.5691 24.7099 70.759C24.5771 70.759 24.4442 70.759 24.3114 70.759C22.1194 68.9235 21.3223 66.645 21.9865 63.9868C22.1194 63.3539 22.85 62.721 23.4478 62.3412C25.1749 61.3286 26.9683 60.2526 28.8282 59.4931C31.4188 58.4172 34.1422 57.5944 36.7992 56.7083C37.5963 56.4552 38.3934 56.4552 39.2569 56.9615C39.6554 57.2147 40.3861 57.2147 40.9175 57.0881C45.5008 56.3286 50.0176 55.5058 54.5345 54.683C56.0623 54.4298 57.5236 54.1767 59.0514 53.9235C59.1842 53.9235 59.3835 53.9235 59.5163 53.9868C57.3908 54.3666 55.2652 54.683 53.1396 55.0628C46.2314 56.2653 39.3897 57.5944 32.8137 59.9362C30.0239 60.9488 27.3669 62.3413 24.6435 63.6704C24.1121 63.9235 23.78 64.3666 23.3814 64.8729C23.4478 64.8729 23.5807 64.8729 23.6471 64.8096C29.0275 61.3286 35.1385 59.5564 41.3825 58.1007C47.4935 56.645 53.7374 55.5691 59.9149 54.3033C60.1142 54.24 60.3134 54.24 60.4463 54.1767C61.9076 53.2273 63.5682 53.2906 65.2289 53.1007C70.6092 52.4678 76.0561 51.8349 81.5029 51.3919C86.3519 51.0121 91.2008 50.8223 96.0498 50.6324C99.7696 50.5058 103.489 50.4425 107.143 50.3792C107.276 50.3792 107.342 50.3792 107.541 50.3159C106.146 47.5311 105.283 44.683 105.15 41.3919C104.419 42.4045 103.755 43.2906 103.091 44.1134C102.161 45.3159 101.364 46.5184 100.367 47.6577C99.371 48.7969 98.5075 48.9868 97.0462 48.4805C96.7141 48.3539 96.4484 48.2273 96.1827 48.1007C95.452 47.6577 94.987 47.1514 94.9206 46.2653C94.7878 43.4805 94.7877 40.759 96.1827 38.2273C96.4484 37.721 96.7805 37.278 97.1126 36.7083C95.5849 37.7843 94.987 39.24 94.7213 40.8223C94.5221 42.278 94.5221 43.7336 94.4556 45.1893C94.4556 45.4425 94.4556 45.6957 94.4556 45.9488C94.3892 45.9488 94.3228 45.9488 94.1899 46.0121C94.0571 45.1261 93.7914 44.24 93.725 43.2906C93.5921 40.126 94.3228 37.1514 95.5848 34.24C96.9133 31.2653 98.5075 28.4805 100.832 26.1387C102.36 24.5564 104.154 23.3539 106.478 22.9741C109.202 22.4678 112.722 24.3033 113.785 26.7083C113.918 26.9615 113.984 27.3412 113.984 27.5944C113.984 28.164 113.852 28.7969 113.121 28.9868C112.656 29.1134 111.859 28.7336 111.593 28.164C111.394 27.7843 111.261 27.3412 111.195 26.8982C111.062 26.3286 110.73 26.1387 110.132 26.1387C108.87 26.202 107.741 26.645 106.744 27.3412C103.423 29.7463 101.231 32.9109 99.6367 36.5185C98.5075 38.9868 97.8433 41.645 97.7769 44.3666C97.7769 44.6197 97.8433 44.8729 97.9097 45.3159C98.4411 44.683 98.9061 44.24 99.2382 43.7969C101.098 41.0754 102.958 38.2906 104.751 35.5691C105.549 34.3666 106.412 33.1007 107.209 31.8982C107.475 31.5185 107.674 31.0754 107.873 30.6324C108.139 30.0628 108.538 29.683 109.202 29.8096C109.933 29.9362 110.663 30.1261 111.327 30.4425C112.324 30.9488 112.39 31.3919 112.191 32.4045C111.46 35.3792 110.663 38.4172 110.198 41.4552C109.999 42.7843 110.198 44.1767 110.464 45.5058C110.796 47.0881 111.394 48.5438 111.859 50.0628C112.058 50.6324 112.457 50.759 112.988 50.8222C116.907 51.202 120.76 51.8982 124.413 53.2906C125.808 53.7969 127.136 54.4298 127.668 55.9488C127.801 56.3286 127.934 56.7716 128 57.1514C127.801 57.2779 127.801 57.4045 127.801 57.5311ZM114.383 54.24C116.641 55.8856 119.099 57.2147 121.823 57.9109C122.885 58.164 123.948 58.2273 125.011 58.3539C125.277 58.3539 125.675 58.1007 125.808 57.9109C125.874 57.7843 125.609 57.2779 125.409 57.1514C124.546 56.645 123.682 56.0121 122.752 55.6957C120.095 54.683 117.306 54.3666 114.383 54.24ZM124.147 55.6324C121.49 54.0501 118.568 53.6071 115.512 53.5438C118.501 53.9235 121.424 54.3666 124.147 55.6324ZM91.5994 52.4678V52.5311C94.2564 52.5311 96.9798 52.5311 99.6367 52.5311V52.4678C96.9798 52.4678 94.3228 52.4678 91.5994 52.4678Z" fill="white"/>
<path id="Vector_2" d="M23.4478 0C24.4442 0.506329 25.507 0.886068 26.5034 1.45569C26.9683 1.77214 27.3005 2.27848 27.8319 2.9114C27.234 3.03798 26.8355 3.22785 26.5034 3.16456C24.1121 2.65823 21.7872 3.10127 19.5288 3.79747C18.2667 4.17722 16.9382 4.49368 15.6762 4.87343C15.4105 4.93672 15.0784 5.25317 15.0119 5.50634C14.4141 8.73419 13.8163 12.0253 13.2185 15.2532C12.0892 21.8354 10.8272 28.481 9.89724 35.0633C9.16657 39.9367 8.76803 44.8734 8.36949 49.7468C8.10379 52.8481 8.23663 56.0127 8.76803 59.1139C8.83445 59.3671 8.90088 59.6836 8.9673 59.9367C10.5615 59.557 12.1557 59.1772 13.7499 58.8608C16.4733 58.3544 18.2667 59.8101 19.2631 61.6456C19.3959 61.8987 19.2631 62.3418 19.2631 62.7215C18.931 62.5949 18.5324 62.5949 18.2667 62.4051C17.5361 61.8354 16.739 61.7089 15.8754 61.8987C13.617 62.4051 11.4914 63.1013 9.43227 64.0506C7.70524 64.8734 5.84535 65.5696 4.11832 66.4557C2.59055 67.2785 1.46134 66.7089 0.464969 65.443C0.265696 65.1899 0.132849 64.8734 0 64.6203C0 64.3671 0 64.1772 0 63.924C1.19564 62.9747 2.45771 62.0253 4.18474 61.962C3.91905 61.3291 3.58692 60.8861 3.45407 60.3797C3.05552 59.0506 2.4577 57.6582 2.25843 56.3291C1.79346 52.5316 2.05916 48.6709 2.4577 44.8734C2.9891 40 3.58693 35.0633 4.38402 30.2532C5.31396 24.1772 6.37675 18.1646 7.43954 12.1519C7.70524 10.6962 8.03736 9.2405 8.30306 7.7848C8.17021 7.7848 8.10379 7.7848 8.03736 7.7848C7.3067 8.10126 6.57602 8.29115 5.91177 8.67089C4.58328 9.3671 3.85262 9.2405 2.85625 7.7848C2.12559 6.70885 2.25843 6.20253 3.5205 5.6962C6.97457 4.36709 10.3622 3.03797 13.8163 1.83544C16.0747 1.07595 18.3996 0.632915 20.658 0.063295C21.588 3.86204e-06 22.5179 0 23.4478 0ZM5.4468 39.2405C5.4468 40.443 5.4468 41.5823 5.4468 42.7848C5.4468 42.1519 5.51323 41.4557 5.57965 40.8228C5.64608 40.1899 5.71251 39.557 5.71251 38.924C5.64608 38.924 5.57965 38.924 5.57965 38.924C5.51323 38.9873 5.51323 39.1139 5.4468 39.2405C5.64608 38.3544 5.9782 37.4684 6.17748 36.519C7.57239 30.1266 8.90088 23.7342 10.2294 17.3418C10.3622 16.7721 10.4951 16.1392 10.6279 15.5696C10.7608 15 10.8936 14.3671 11.0265 13.7975C6.11106 25.0633 4.45044 36.8987 4.18474 48.9873C4.31759 48.7975 4.38402 48.6076 4.38402 48.4177C4.58329 46.7722 4.78256 45.0633 4.98184 43.4177C5.04826 42.0253 5.24753 40.6329 5.4468 39.2405ZM5.18111 45.7595C4.64971 49.557 4.58329 54.0506 5.18111 55.1266C5.18111 51.962 5.18111 48.8608 5.18111 45.7595ZM4.31759 53.9873C4.38402 55.6329 4.38401 57.3418 5.4468 58.8608C5.04826 57.2152 4.64971 55.5696 4.31759 53.9873Z" fill="white"/>
<path id="Vector_3" d="M55.265 45.0632C56.1285 44.1771 56.9256 43.3543 57.7891 42.4682C59.9811 40.1898 62.1731 37.9113 64.2987 35.6328C64.5644 35.3163 64.7637 34.9366 64.8965 34.5568C65.6936 31.3923 66.4907 28.2277 67.2878 25.0632C67.6199 23.9239 68.1513 23.5442 69.4134 23.734C69.6791 23.7973 69.9448 23.7973 70.1441 23.8606C72.004 24.367 72.4025 24.9999 72.004 26.8353C71.1404 31.0125 70.2105 35.1898 69.4134 39.367C68.9484 41.772 68.7492 44.2404 68.9484 46.7087C68.9484 46.9619 69.0149 47.2151 69.0149 47.4682C69.0149 47.5315 69.0813 47.6581 69.1477 47.848C69.6127 47.3416 70.0776 46.9619 70.3433 46.5189C72.0704 43.6075 73.7974 40.6328 75.458 37.6581C76.388 36.0125 77.3844 34.367 78.115 32.6581C78.8457 30.9492 79.3107 29.1771 79.8421 27.4049C80.0413 26.8353 80.2406 26.2024 80.4399 25.6328C80.6392 25.0632 81.1041 24.6201 81.7684 24.6834C82.499 24.7467 83.2961 24.8733 83.9604 25.1897C84.7575 25.5062 84.7575 26.2657 84.6246 27.0252C84.3589 28.6075 84.0268 30.1897 83.7611 31.7087C83.0304 35.3796 82.499 39.0505 82.6983 42.848C82.7647 44.1771 83.0304 45.5062 83.9604 46.7087C85.2889 45.5695 86.2188 44.1771 87.0159 42.7214C88.5437 39.8733 89.3408 36.772 90.005 33.6708C90.8021 29.8733 91.2671 26.0125 90.9349 22.1518C90.7357 19.8733 90.2043 17.7214 89.3408 15.6328C88.9422 14.6834 88.4772 13.6707 88.6765 12.5315C89.54 12.7847 90.2043 13.291 90.8021 13.9239C92.2634 15.5062 92.9941 17.4049 93.4591 19.367C94.389 22.848 94.389 26.3923 94.1233 29.8733C93.7912 33.7973 92.8613 37.5948 91.5992 41.329C90.8021 43.6075 89.54 45.6961 87.813 47.4682C85.4881 49.81 81.5691 49.4935 79.6428 46.772C78.5136 45.1264 78.115 43.291 77.9822 41.3923C77.9157 40.7594 77.8493 40.1264 77.65 39.4935C77.5836 39.6201 77.4508 39.7467 77.3843 39.8733C76.3216 41.772 75.3916 43.6708 74.2624 45.5695C73.6646 46.6454 72.9339 47.6581 72.0704 48.5442C71.539 49.1138 70.8083 49.4935 70.0777 49.7467C68.1513 50.3796 66.225 49.4302 65.4279 47.6581C64.5644 45.8227 64.2987 43.8606 64.2323 41.8986C64.2323 40.8227 64.2323 39.7467 64.2323 38.5442C63.5016 39.367 62.9038 40.1265 62.2396 40.886C59.5826 44.0505 56.992 47.2151 54.335 50.3796C53.2058 51.772 51.9438 52.0885 50.416 51.3923C49.4196 50.9492 48.9547 50.1898 49.0211 49.1771C49.0875 47.9113 49.2868 46.6454 49.4196 45.1897C49.0875 45.5695 48.8218 45.8227 48.5561 46.1391C46.8955 48.1011 45.2349 50.0632 43.5079 51.9619C42.5115 53.0378 41.3158 53.1644 39.9874 52.6581C38.1275 51.9619 37.1311 50.6328 36.6661 48.7973C36.5997 48.5442 36.5333 48.2277 36.4668 47.7847C36.334 48.1011 36.2012 48.291 36.1347 48.4809C34.9391 51.0758 33.7434 53.7973 32.0164 56.1391C30.5551 58.1644 28.5623 58.8606 26.1046 58.2277C24.8426 57.9113 24.0455 57.1518 23.3812 56.1391C21.3221 52.848 19.9272 49.2404 19.1301 45.5062C19.0636 45.3163 18.9972 45.0632 18.9308 44.6834C18.7979 44.9366 18.7315 45.0632 18.7315 45.1897C18.0008 47.848 17.2702 50.5062 17.4694 53.291C17.5359 54.3037 16.6059 54.8733 15.6096 54.6201C14.0818 54.2404 13.1519 53.1011 13.1519 51.3923C13.1519 49.7467 13.2847 48.0378 13.6168 46.4556C15.4767 37.9113 18.2001 29.5568 21.2556 21.329C22.3849 18.4176 23.5805 15.5062 25.0418 12.6581C26.5032 9.7467 28.4959 7.15177 31.0865 5.06316C31.6843 4.55683 32.2821 4.11379 32.9464 3.73404C33.4113 3.48088 34.0092 3.35431 34.607 3.29102C33.7435 4.05051 32.8799 4.80999 32.0164 5.63278C29.0273 8.60746 27.0346 12.1518 25.4404 15.8859C24.3776 18.3543 23.4477 20.9492 22.4513 23.4809C22.4513 23.5442 22.3849 23.6708 22.5177 23.7973C22.7834 23.1644 23.1155 22.4682 23.3812 21.8353C25.3075 17.5315 27.1674 13.2277 29.8244 9.30367C31.2193 7.21507 32.8799 5.37961 34.7398 3.67075C35.1384 3.291 35.5369 3.22771 36.0683 3.35429C38.1939 3.86062 39.5224 5.56949 39.5224 7.59481C39.5224 10.4429 38.526 13.1644 37.264 15.6328C34.607 20.7594 30.9536 25.253 26.9682 29.4935C25.5732 30.9492 24.0455 32.3416 22.5177 33.734C22.1192 34.1138 21.787 34.5568 21.787 35.253C22.4513 34.6201 23.1155 34.1138 23.7133 33.4809C25.7725 31.4556 28.0974 29.8733 30.8208 28.734C32.2821 28.1011 33.9427 28.4176 35.0719 29.5568C35.6698 30.1898 35.7362 30.8859 35.5369 31.6454C35.1384 32.848 34.4077 33.7973 33.4113 34.6201C30.6879 36.8986 27.7652 38.8606 24.6433 40.6328C23.3812 41.3923 23.3148 41.3923 23.7133 42.7214C24.9754 47.0252 26.1711 51.329 27.8981 55.5062C27.9645 55.6961 28.0974 55.8859 28.2302 56.2657C28.9609 55.5062 29.6916 54.9366 30.2229 54.1771C31.02 53.1011 31.6843 51.9619 32.2821 50.8227C33.4778 48.6075 34.607 46.3923 35.6698 44.1771C36.8654 41.5821 37.9282 38.9239 39.1903 36.3923C41.0501 32.5948 43.5079 29.1771 46.9619 26.5821C47.6926 26.0125 48.5561 25.5695 49.4196 25.1265C46.4305 27.848 43.7071 30.6961 41.9801 34.3037C42.0465 34.367 42.1129 34.367 42.1129 34.4302C42.6443 33.6708 43.1757 32.9113 43.7071 32.2151C45.1685 30.1897 46.5634 28.1644 48.5561 26.6454C49.3532 26.0125 50.2831 25.5062 51.1467 24.9366C52.3423 24.1771 53.6044 24.1771 54.8664 24.6201C57.1913 25.3796 59.0512 26.7087 60.0475 28.9239C60.3797 29.6834 60.3797 30.3796 59.9811 31.1391C59.649 31.772 59.0512 31.8986 58.3869 31.5821C57.7227 31.2024 57.3242 30.6328 57.1913 29.9366C57.1249 29.6201 57.0584 29.367 57.0584 29.0505C56.992 28.5442 56.6599 28.3543 56.1949 28.3543C54.8 28.2277 53.5379 28.6075 52.3423 29.3037C50.1503 30.5695 48.3568 32.2783 46.7626 34.1138C43.5078 37.9746 41.4487 42.3417 40.6516 47.2784C40.5852 47.7847 40.6516 48.3543 40.6516 49.0505C41.183 48.4809 41.648 48.0378 42.0465 47.6581C44.8363 44.6201 47.2276 41.329 49.5525 37.9746C50.3496 36.8353 51.2795 35.7594 52.143 34.6834C52.5416 34.1771 52.8737 33.6708 53.1394 33.1644C53.4051 32.5948 53.8701 32.3417 54.4679 32.4049C55.5307 32.4682 56.4606 32.7847 57.2577 33.4176C57.922 33.9239 58.0548 34.5568 57.7891 35.3163C56.7928 38.4176 55.8628 41.5822 54.8664 44.6834C54.8 44.8733 54.8 45.1265 54.7336 45.3163C55.0657 44.9999 55.1986 44.9999 55.265 45.0632ZM36.4668 5.94923C36.1347 6.2024 35.869 6.39227 35.6698 6.58214C34.0091 8.16442 32.6142 9.99987 31.4186 11.9619C28.3631 17.0252 26.2375 22.5315 24.1783 28.0378C24.1119 28.1644 24.1783 28.291 24.1119 28.6075C24.3776 28.4176 24.5104 28.291 24.6433 28.1644C26.8353 25.5695 29.0937 23.1011 31.1529 20.4429C33.2785 17.6581 35.0055 14.6834 36.0019 11.329C36.4669 9.62012 36.8654 7.91126 36.4668 5.94923ZM32.415 30.3163C32.3485 30.253 32.2821 30.1898 32.2157 30.1898C29.8908 30.4429 23.2484 35.886 22.5177 37.7214C22.6506 37.6581 22.717 37.6581 22.7834 37.5948C25.4404 35.7594 28.0309 33.9872 30.6215 32.0885C31.3522 31.5822 31.8836 30.9492 32.415 30.3163ZM69.0813 35.8227C67.9521 39.7467 67.0221 43.6075 68.6827 47.5948C67.5535 43.6075 68.417 39.6834 69.0813 35.8227Z" fill="white"/>
<path id="Vector_4" d="M5.7124 36.4561C5.91168 34.8105 6.17737 33.1016 6.37665 31.4561C6.44307 31.4561 6.57591 31.456 6.64234 31.5193C6.37664 33.1649 6.11095 34.8738 5.84525 36.5193C5.77882 36.5193 5.7124 36.4561 5.7124 36.4561Z" fill="white"/>
</g>
<path id="Vector_5" d="M84.5586 6.45544C84.2264 5.25291 83.4958 4.30353 82.2337 3.73391C81.503 3.41746 80.9052 3.48076 80.4403 3.9238C79.3775 4.93646 78.4475 6.01241 77.9825 7.40481C77.119 9.93646 76.1891 12.4048 75.392 14.9365C74.5949 17.2782 73.2664 19.2403 71.0744 20.6327C70.8751 20.7592 70.6759 20.9491 70.4102 21.139C70.6094 21.2023 70.6759 21.2023 70.8087 21.2656C73.1336 21.8352 75.2591 21.4554 77.3183 20.3795C80.3738 18.7972 82.5658 16.3922 83.8943 13.3542C84.8243 11.139 85.1564 8.79722 84.5586 6.45544Z" fill="white"/>
<path id="Vector_6" d="M66.6901 10.0628C65.893 9.36664 65.0295 8.67044 64.2324 7.91095C62.771 6.58183 61.6418 5.06284 61.5754 3.03752C61.5754 2.97423 61.509 2.84766 61.4426 2.84766C61.3761 2.84766 61.2433 2.91096 61.1769 2.97425C60.9776 3.22741 60.7119 3.48056 60.579 3.73373C59.7155 5.18942 59.4498 6.7717 59.7819 8.48056C60.2469 10.9489 61.5754 12.9109 63.5017 14.5565C64.166 15.0628 64.8302 15.5692 65.5609 16.0755C65.6273 15.9489 65.6273 15.8856 65.6273 15.8223C65.7601 13.9869 66.1587 12.2147 66.8229 10.4426C66.8229 10.3793 66.7565 10.1261 66.6901 10.0628Z" fill="white"/>
<path id="Vector_7" d="M63.5683 5.88567C64.4982 6.77175 65.4281 7.65783 66.3581 8.54391C66.6238 8.79707 66.9559 9.05023 67.288 9.36668C68.0851 7.72111 69.2143 6.26542 70.5428 4.9996C69.2143 3.29074 67.5537 2.02492 65.2953 1.58188C64.2989 1.39201 63.369 1.51859 62.5719 2.1515C62.1733 2.46795 61.9741 2.84771 62.1069 3.29075C62.5055 4.24012 62.8376 5.12618 63.5683 5.88567Z" fill="white"/>
<path id="Vector_8" d="M73.4653 16.1394C74.2624 13.9243 74.9266 11.7091 75.5909 9.49387C76.4544 6.89893 77.6501 4.62046 80.307 3.22805L80.3735 3.16476C80.9049 2.72172 80.4399 2.53184 80.4399 2.53184C78.7129 2.40526 77.9158 2.53184 77.9158 2.53184C76.5873 2.65843 75.2588 2.97489 74.0631 3.54451C71.4726 4.74704 69.6791 6.70906 68.3506 9.11412C67.2214 11.2027 66.69 13.4812 66.4243 15.8863C66.2915 16.9622 66.4243 17.9749 66.8893 18.9242C67.3543 20.0635 68.3506 20.4432 69.5463 20.1268C69.812 20.0635 70.1441 19.9369 70.4098 19.8103C71.9376 18.9875 72.8675 17.7217 73.4653 16.1394Z" fill="white"/>
</g>
</svg>
