<svg width="75" height="77" viewBox="0 0 75 77" fill="none" xmlns="http://www.w3.org/2000/svg">
<path d="M74.8792 16.3729C74.7492 14.6187 74.4893 12.9078 74.1212 11.1969C73.6664 9.07448 73.06 7.01706 72.2154 5.00296C71.6956 3.76851 71.0242 2.59903 70.093 1.60281C69.6598 1.12635 69.1834 0.714868 68.6203 0.41167C67.7757 -0.0431279 66.8877 -0.129756 65.9781 0.195099C65.3717 0.41167 64.852 0.77984 64.3755 1.23464C63.5525 2.01429 62.9245 2.94554 62.4047 3.96342C61.4735 5.80427 60.8238 7.7534 60.3473 9.74585C59.8708 11.695 59.546 13.6441 59.3078 15.6366C59.1778 16.6328 59.1562 17.6507 59.3078 18.6469C59.6976 21.2674 60.9537 23.3681 63.1627 24.8841C63.4876 25.1007 63.8124 25.2956 64.1373 25.4905C65.0036 26.0319 65.61 26.7899 65.7832 27.8078C65.8698 28.3492 65.8915 28.934 65.8915 29.4971C65.8915 30.6232 65.8482 31.7494 65.8265 32.8755C65.8049 33.3953 65.8265 33.8934 65.8049 34.4132C65.7832 35.7126 65.7399 36.9904 65.7182 38.2898C65.6966 39.0478 65.6966 39.8058 65.6749 40.5638C65.6749 40.8237 65.6533 41.0836 65.6316 41.3218C65.2635 36.4923 63.8341 32.0093 61.2786 27.8944C58.723 23.7796 55.3445 20.4877 51.1431 18.0405C46.9633 15.5932 42.4586 14.2505 37.6291 14.0556C31.002 13.7957 24.9164 15.4633 19.5022 19.3182C12.0954 24.5809 8.04559 31.8144 7.02771 40.867C7.00605 40.737 7.00605 40.6937 7.00605 40.6288C6.98439 39.7841 6.96273 38.9612 6.94108 38.1166C6.91942 37.3802 6.91942 36.6439 6.89776 35.8859C6.8761 34.6514 6.83279 33.417 6.81114 32.1825C6.78948 31.4245 6.76782 30.6882 6.74616 29.9302C6.72451 29.2155 6.70285 28.5008 6.85445 27.8078C7.09268 26.6167 7.72073 25.7504 8.80358 25.209C8.97684 25.1223 9.15009 25.0574 9.30169 24.9707C10.168 24.5159 10.7527 23.8229 10.9909 22.87C11.2292 21.9821 11.1859 21.0725 11.1425 20.1629C11.0992 19.145 11.0126 18.1055 10.926 17.0876C10.8393 16.0047 10.7744 14.9002 10.6661 13.8174C10.5361 12.5613 10.3845 11.2835 10.2329 10.0274C10.0597 8.64134 9.86478 7.25529 9.66986 5.86924C9.47495 4.50485 9.28004 3.14045 9.08512 1.7544C9.04181 1.38623 8.97684 1.01807 8.91187 0.649898C8.8469 0.303386 8.67364 0.173444 8.32713 0.108473C8.32713 0.238415 8.30547 0.368356 8.30547 0.476641C8.32713 1.14801 8.34878 1.84104 8.3921 2.5124C8.50038 4.72142 8.58701 6.95209 8.6953 9.16111C8.76027 10.807 8.8469 12.453 8.91187 14.0989C8.95518 15.2467 9.02015 16.4162 9.06347 17.564C9.08512 17.9539 9.10678 18.3437 9.08512 18.7119C9.06347 19.0584 8.86855 19.2533 8.5437 19.3182C8.21884 19.3832 7.91564 19.2533 7.7857 18.9284C7.72073 18.7552 7.67742 18.5603 7.65576 18.387C7.54747 16.113 7.46085 13.8607 7.35256 11.5867C7.28759 9.98408 7.20096 8.40311 7.13599 6.80049C7.07102 5.1329 7.00605 3.44365 6.91942 1.77606C6.89776 1.25629 6.81113 0.736526 6.76782 0.216758C6.76782 0.173444 6.72451 0.130127 6.70285 0.0651559C6.61622 0.0651559 6.52959 0.0868155 6.39965 0.108473C6.37799 0.498299 6.31302 0.888124 6.31302 1.27795C6.29137 2.40412 6.29136 3.53028 6.29136 4.65645C6.29136 9.11779 6.29136 13.5791 6.29136 18.0621C6.29136 18.1921 6.29136 18.3437 6.29136 18.4736C6.29136 18.5819 6.26971 18.6902 6.24805 18.7985C6.18308 19.1667 5.94485 19.3399 5.59834 19.3616C5.23017 19.3616 4.97029 19.1667 4.90532 18.7985C4.88366 18.6902 4.88366 18.5603 4.88366 18.452C4.88366 18.1704 4.88366 17.8889 4.88366 17.5857C4.88366 14.9435 4.862 12.3014 4.862 9.68087C4.862 6.82215 4.862 3.94177 4.84034 1.08304C4.84034 0.77984 4.75372 0.476639 4.7104 0.173441C4.7104 0.151784 4.68874 0.130128 4.66709 0.0868142C4.60212 0.0868142 4.51549 0.108473 4.42886 0.108473C4.38555 0.368357 4.32058 0.628241 4.29892 0.866468C4.23395 2.14423 4.16898 3.42199 4.12566 4.72142C4.01738 6.93043 3.93075 9.13945 3.82246 11.3485C3.75749 13.0161 3.67086 14.6836 3.58424 16.3512C3.56258 17.0659 3.51927 17.7806 3.47595 18.4736C3.47595 18.6469 3.41098 18.8201 3.34601 18.9934C3.21607 19.2749 2.95618 19.4049 2.63133 19.3399C2.32813 19.2966 2.13322 19.1233 2.06824 18.8201C2.04659 18.6902 2.02493 18.5386 2.04659 18.4087C2.06825 17.6507 2.11156 16.9143 2.15487 16.1563C2.26316 13.9906 2.34979 11.8466 2.45807 9.68087C2.5447 8.03494 2.60967 6.36735 2.67464 4.72142C2.71796 3.53028 2.78293 2.33914 2.82624 1.14801C2.8479 0.801495 2.82624 0.454985 2.82624 0.108473C2.78293 0.108473 2.73961 0.108471 2.6963 0.130128C2.37144 0.238413 2.2415 0.498298 2.19819 0.801497C2.06825 1.66778 1.9383 2.5124 1.83002 3.37868C1.59179 5.11125 1.28859 6.8438 1.09368 8.59802C0.833794 10.8504 0.638881 13.1243 0.443968 15.3767C0.292369 17.1309 0.162428 18.8851 0.0324855 20.6393C-0.0108285 21.1374 -0.0108285 21.6572 0.0324855 22.1553C0.119114 23.1949 0.552255 24.0611 1.39688 24.6892C1.74339 24.9491 2.11156 25.144 2.47973 25.3389C3.25938 25.7287 3.82246 26.2918 4.14732 27.1148C4.29892 27.5263 4.4072 27.9594 4.4072 28.4142C4.4072 29.4104 4.4072 30.4067 4.4072 31.4029C4.38555 32.659 4.34223 33.9151 4.32058 35.1712C4.29892 36.1891 4.27726 37.2286 4.25561 38.2465C4.23395 39.7192 4.19063 41.2135 4.16898 42.6862C4.14732 43.4225 4.14732 44.1589 4.12566 44.9169C4.104 46.173 4.06069 47.4291 4.03904 48.6852C4.01738 49.9413 3.99572 51.1974 3.97406 52.4535C3.95241 53.8829 3.90909 55.3122 3.86578 56.7416C3.84412 57.8028 3.82246 58.864 3.80081 59.9035C3.77915 61.3979 3.73584 62.8922 3.71418 64.3649C3.69252 65.1229 3.69252 65.8592 3.67087 66.6172C3.64921 67.8733 3.60589 69.1294 3.58424 70.3855C3.56258 71.4467 3.54092 72.5079 3.51926 73.5908C3.51926 73.9156 3.51927 74.2188 3.58424 74.5437C3.71418 75.2583 4.12566 75.7781 4.81869 76.0163C5.38177 76.2113 5.94485 76.2113 6.50794 75.9947C6.96273 75.8214 7.28759 75.5399 7.50416 75.1068C7.69907 74.7386 7.76404 74.3704 7.76404 73.9589C7.74239 72.5512 7.69907 71.1652 7.67742 69.7575C7.67742 69.3243 7.67742 68.8912 7.65576 68.458C7.6341 67.2019 7.59079 65.9242 7.56913 64.6681C7.54747 63.6285 7.52582 62.5673 7.50416 61.5278C7.4825 60.0335 7.43919 58.5391 7.41753 57.0664C7.39587 56.3301 7.39587 55.5938 7.37422 54.8358C7.35256 53.558 7.30925 52.2802 7.28759 51.0241C7.26593 50.2012 7.24427 49.3782 7.22262 48.5769C7.22262 48.1221 7.22262 47.6673 7.22262 47.2125C8.28381 54.5975 11.5324 60.7914 17.1848 65.6643C22.8373 70.5371 29.4644 72.9194 36.9144 72.8111C43.7147 72.7245 49.8003 70.4938 55.0413 66.1407C61.1269 61.0947 64.5704 54.5759 65.5883 46.7577C65.61 46.8443 65.61 46.9526 65.61 47.0392C65.5883 47.9272 65.5666 48.7935 65.5666 49.6814C65.5666 50.1579 65.5666 50.6343 65.545 51.1108C65.5233 52.2802 65.48 53.4497 65.4584 54.5975C65.4367 55.6587 65.415 56.7199 65.3934 57.7595C65.3717 59.2538 65.3284 60.7481 65.3068 62.2208C65.2851 62.9788 65.2851 63.7368 65.2635 64.4948C65.2418 65.7509 65.1985 67.007 65.1768 68.2631C65.1552 69.4759 65.1335 70.6887 65.1118 71.9015C65.0902 72.6378 65.0685 73.3525 65.0685 74.0889C65.0685 75.2367 65.6749 75.973 66.8011 76.1896C66.8444 76.1896 66.8877 76.2113 66.9094 76.2113C67.9922 76.3629 68.9451 75.7564 69.205 74.7169C69.2483 74.5003 69.2917 74.2838 69.2917 74.0672C69.2917 73.071 69.27 72.0748 69.2483 71.0785C69.2267 69.7358 69.1834 68.3931 69.1401 67.0503C69.1184 66.0108 69.0967 64.9713 69.0751 63.9317C69.0534 62.459 69.0101 60.9864 68.9885 59.5137C68.9668 58.7774 68.9668 58.0627 68.9451 57.3263C68.9235 56.0702 68.8802 54.8141 68.8585 53.558C68.8369 52.3236 68.8152 51.0675 68.7935 49.833C68.7719 48.4036 68.7286 46.9959 68.6853 45.5666C68.6636 44.5054 68.6419 43.4442 68.6203 42.3613C68.5986 40.867 68.5553 39.3727 68.5337 37.9C68.512 37.1636 68.512 36.4273 68.4903 35.6693C68.4687 34.175 68.4254 32.659 68.4037 31.1646C68.3821 30.45 68.3821 29.7353 68.3821 29.0423C68.3604 28.4142 68.4254 27.8295 68.6636 27.2447C68.9885 26.4434 69.5948 25.8587 70.3312 25.4039C70.6994 25.1656 71.0892 24.9274 71.4357 24.6675C72.6052 23.8013 73.5364 22.7401 74.1645 21.4406C74.7925 19.8164 75.0091 18.1271 74.8792 16.3729ZM13.763 29.7136C12.312 32.1175 11.1859 34.6731 10.4928 37.4019C10.038 39.1994 9.77815 41.0402 9.73483 42.9028C9.64821 47.1259 10.6444 51.1108 12.377 54.9441C12.7452 55.767 13.2 56.5683 13.5898 57.3696C13.6331 57.4779 13.6981 57.5646 13.7197 57.6945C13.6548 57.6079 13.5898 57.5429 13.5465 57.4563C11.4457 54.381 10.0813 51.0025 9.43163 47.3208C9.15009 45.6532 9.02015 43.9639 9.06347 42.2747C9.17175 38.593 10.0164 35.0846 11.5973 31.771C13.07 28.6957 15.0191 25.967 17.4447 23.6063C20.8016 20.3578 24.7648 18.1271 29.2911 16.9576C31.8683 16.2863 34.4888 16.0047 37.1526 16.1347C38.0406 16.178 38.9285 16.3296 39.7948 16.4162C39.8814 16.4379 39.9897 16.4595 40.0763 16.4812V16.5028C39.6215 16.4812 39.1667 16.4379 38.7119 16.4379C37.6507 16.4379 36.5895 16.4162 35.5067 16.4379C34.0557 16.4812 32.6263 16.6544 31.2186 16.936C26.9738 17.7589 23.1622 19.5348 19.8487 22.3502C17.4447 24.451 15.4306 26.9415 13.763 29.7136ZM24.1151 43.4009C24.1151 36.4706 29.7892 31.0997 36.5246 31.208C43.13 31.3162 48.5226 36.6439 48.5226 43.4225C48.5226 50.1579 43.065 55.5938 36.308 55.5938C29.5727 55.5721 24.0934 50.1579 24.1151 43.4009ZM62.3181 51.284C60.997 55.4422 58.7663 59.0805 55.8426 62.3074C53.8719 64.4731 51.5979 66.249 48.999 67.6351C46.3785 69.0428 43.5848 69.974 40.6394 70.4288C39.4266 70.6237 38.2138 70.6887 36.9794 70.6887C35.0952 70.6671 33.211 70.4288 31.3702 69.9957C31.3052 69.974 31.2186 69.9524 31.1536 69.8874C31.2403 69.8874 31.3269 69.8874 31.4135 69.9091C32.4964 70.0607 33.5792 70.1689 34.6837 70.2339C35.9398 70.2989 37.2176 70.2772 38.4737 70.1689C40.2279 69.9957 41.9388 69.6925 43.6281 69.216C47.483 68.1332 50.9048 66.2707 53.8285 63.4986C55.6477 61.766 57.1637 59.7952 58.4415 57.6079C59.611 55.5938 60.6072 53.493 61.3652 51.2624C61.9716 49.4215 62.4047 47.559 62.6213 45.6315C62.8812 43.2276 62.8162 40.8453 62.4264 38.4631C61.9716 35.7343 61.0836 33.1571 59.8925 30.6665C59.3294 29.4754 58.6797 28.3276 57.9867 27.2231C57.9217 27.1364 57.8784 27.0282 57.8351 26.9415C57.8351 26.9199 57.8351 26.8982 57.8567 26.8549C57.9867 27.0065 58.1166 27.1581 58.2249 27.288C59.1129 28.4792 59.8925 29.7353 60.5639 31.0564C61.7334 33.3303 62.5996 35.7126 63.0977 38.2465C63.3576 39.5676 63.5092 40.8886 63.5742 42.2314C63.6825 45.3067 63.2493 48.3387 62.3181 51.284Z" fill="black"/>
<path d="M47.1372 43.4225C47.1372 37.207 42.1128 32.6806 36.5253 32.5724C30.5696 32.4424 25.6101 37.3153 25.5019 43.0977C25.3936 48.9884 30.0282 54.1861 36.2871 54.2294C42.1778 54.2077 47.1372 49.4865 47.1372 43.4225Z" fill="black"/>
</svg>
