<svg width="60" height="75" viewBox="0 0 60 75" fill="none" xmlns="http://www.w3.org/2000/svg">
<path d="M58.409 12.4311C57.8892 11.0667 57.3478 9.70235 56.8064 8.35961C56.6764 8.03476 56.5032 7.73156 56.2866 7.45002C55.5719 6.49711 54.5757 6.10728 53.4062 6.10728C53.0164 6.10728 52.6482 6.1506 52.2584 6.1506C51.9985 6.1506 51.7386 6.12894 51.5004 6.08563C50.959 5.999 50.5258 5.73911 50.3309 5.21934C50.0061 4.39638 49.6812 3.57341 49.3564 2.7721C49.2048 2.40393 49.0748 2.05742 48.8799 1.71091C48.3601 0.736344 47.5588 0.194917 46.476 0.064975C46.3893 0.064975 46.3027 0.021657 46.2377 0C35.171 0 24.1043 0 13.0375 0C12.8643 0.0433141 12.6694 0.0866281 12.4961 0.108285C11.7598 0.238227 11.1967 0.606399 10.8069 1.23445C10.6336 1.51599 10.482 1.81919 10.3521 2.12239C10.0705 2.85873 9.81063 3.61673 9.52909 4.37472C9.39915 4.72123 9.29086 5.04609 9.11761 5.37095C8.85772 5.89071 8.44624 6.1506 7.8615 6.1506C7.42836 6.1506 6.99522 6.12894 6.56208 6.12894C6.10728 6.12894 5.63083 6.12894 5.17603 6.1506C5.04609 6.1506 4.9378 6.19391 4.82952 6.23723C4.46135 6.43214 4.09318 6.62705 3.74667 6.84362C3.3785 7.06019 3.09695 7.38505 2.9237 7.79653C2.0141 9.724 1.23445 11.6948 0.43314 13.6656C0.303198 14.0121 0.151599 14.337 0 14.7268C0.346512 14.7268 0.649711 14.7484 0.974566 14.7484C1.47268 14.7484 1.97079 14.7268 2.44724 14.7268H2.4689C3.16193 14.7051 3.44347 14.9217 3.57341 15.5931C4.35306 19.6429 5.13272 23.6928 5.91237 27.7426C6.56208 31.0995 7.23345 34.4347 7.88316 37.7915C8.3163 39.9789 8.70613 42.1879 9.11761 44.3969C9.68069 47.4072 10.2221 50.4392 10.8069 53.4495C11.4133 56.6115 12.0413 59.7517 12.6477 62.9137C13.2324 65.9023 13.8172 68.8693 14.3803 71.858C14.5102 72.5727 14.6618 73.2657 14.7917 73.9804V74.0021C14.8567 74.3919 15.03 74.6734 15.4198 74.8034C24.8623 74.8034 34.3047 74.8034 43.7255 74.8034C44.0937 74.6734 44.2453 74.3702 44.3103 74.0021C44.895 70.9917 45.4798 67.9597 46.0645 64.9494C46.6276 62.069 47.1907 59.1887 47.7537 56.2866C48.1652 54.1209 48.5767 51.9552 49.0098 49.8112C49.4646 47.5155 49.9411 45.2199 50.4176 42.9242C50.9373 40.3904 51.4354 37.8565 51.9335 35.3443C52.4317 32.8754 52.9081 30.3848 53.3846 27.9159C53.8827 25.4037 54.3591 22.8915 54.8356 20.3793C55.1388 18.82 55.442 17.239 55.7452 15.6797C55.7668 15.5497 55.8102 15.3981 55.8535 15.2682C55.9834 14.9 56.2649 14.7268 56.6331 14.7051C56.7847 14.7051 56.9147 14.7051 57.0663 14.7051C57.7593 14.7051 58.474 14.7051 59.167 14.7051C59.2103 14.7051 59.232 14.6835 59.2753 14.6835C59.2753 14.6402 59.2753 14.5968 59.2753 14.5752C58.9288 13.8605 58.6689 13.1458 58.409 12.4311ZM46.3677 48.5984C46.2594 48.5984 46.1728 48.5984 46.0645 48.5984C43.7688 48.5984 41.4732 48.5984 39.1776 48.62C38.9826 48.62 38.7877 48.6417 38.5928 48.62C38.3979 48.62 38.2247 48.685 38.0731 48.8366C37.9215 49.0098 37.7699 49.1831 37.6399 49.378C36.9685 50.4609 36.1889 51.4138 35.1927 52.2151C33.9149 53.2113 32.4855 53.8177 30.8613 54.0126C29.3453 54.2075 27.8509 54.0993 26.3999 53.5795C24.6457 52.9731 23.2813 51.8686 22.1985 50.3959C21.9386 50.0494 21.722 49.6596 21.4838 49.2914C21.4188 49.2048 21.3755 49.1181 21.3105 49.0098C21.1156 48.7283 20.8557 48.5767 20.5092 48.5767C19.9461 48.5767 19.383 48.5767 18.82 48.5767C16.7842 48.5767 14.7484 48.5767 12.7127 48.5767C12.6694 48.5767 12.626 48.5767 12.5394 48.555C12.0846 45.9995 11.6298 43.4657 11.175 40.9101C11.305 40.9101 11.3916 40.9101 11.4999 40.9101C13.4707 40.9101 15.4198 40.9101 17.3906 40.9101C18.3868 40.9101 19.3614 40.8668 20.3576 40.8885C20.8557 40.8885 21.1589 40.6719 21.3971 40.2821C21.722 39.7623 22.0469 39.2425 22.415 38.7661C23.8011 37.0119 25.577 35.9073 27.786 35.5392C29.7784 35.2143 31.7275 35.3876 33.59 36.2322C35.106 36.9469 36.2755 38.0514 37.1851 39.4374C37.3584 39.719 37.5316 40.0005 37.6832 40.2821C37.8998 40.7152 38.2463 40.9101 38.7444 40.9101C41.7114 40.8885 44.7001 40.9101 47.6671 40.9101C47.7321 40.9101 47.8187 40.9101 47.927 40.9318C47.4072 43.4873 46.8875 46.0212 46.3677 48.5984Z" fill="black"/>
</svg>
